<svg width="35" height="35" viewBox="0 0 35 35" fill="none" xmlns="http://www.w3.org/2000/svg">
<g clip-path="url(#clip0_1846_441)">
<path fill-rule="evenodd" clip-rule="evenodd" d="M29.4987 30.2382C31.238 28.6039 32.6235 26.6303 33.5697 24.4393C34.516 22.2484 35.0028 19.8866 35 17.5C35 7.83461 27.1654 0 17.5 0C7.83462 0 1.16832e-05 7.83461 1.16832e-05 17.5C-0.00274973 19.8866 0.484029 22.2484 1.43025 24.4393C2.37648 26.6303 3.76204 28.6039 5.50129 30.2382C8.74451 33.3018 13.0386 35.006 17.5 35C21.9614 35.006 26.2555 33.3018 29.4987 30.2382ZM6.99103 27.9318C8.25117 26.3552 9.85028 25.0828 11.6696 24.2091C13.4889 23.3353 15.4817 22.8826 17.5 22.8846C19.5183 22.8826 21.5111 23.3353 23.3304 24.2091C25.1497 25.0828 26.7488 26.3552 28.009 27.9318C26.6341 29.3205 24.9973 30.4224 23.1933 31.1735C21.3893 31.9247 19.4541 32.3102 17.5 32.3077C15.5459 32.3102 13.6107 31.9247 11.8067 31.1735C10.0027 30.4224 8.36586 29.3205 6.99103 27.9318ZM24.2308 12.1154C24.2308 13.9005 23.5216 15.6125 22.2594 16.8748C20.9971 18.137 19.2851 18.8461 17.5 18.8461C15.7149 18.8461 14.0029 18.137 12.7406 16.8748C11.4784 15.6125 10.7692 13.9005 10.7692 12.1154C10.7692 10.3303 11.4784 8.61827 12.7406 7.35601C14.0029 6.09375 15.7149 5.38461 17.5 5.38461C19.2851 5.38461 20.9971 6.09375 22.2594 7.35601C23.5216 8.61827 24.2308 10.3303 24.2308 12.1154Z" fill="black"/>
</g>
<defs>
<clipPath id="clip0_1846_441">
<rect width="35" height="35" fill="white"/>
</clipPath>
</defs>
</svg>
